<svg width="55" height="55" viewBox="0 0 55 55" fill="none" xmlns="http://www.w3.org/2000/svg">
<rect opacity="0.1" width="55" height="55" rx="20" fill="#4D44B5"/>
<path d="M37.6442 28.8632C37.3443 28.8632 37.0307 28.7677 36.7307 28.6996C36.1233 28.5657 35.5264 28.388 34.9447 28.1678C34.3122 27.9377 33.6169 27.9497 32.9927 28.2014C32.3685 28.4531 31.8594 28.9268 31.5635 29.5312L31.2635 30.1448C29.9356 29.4061 28.7153 28.4886 27.6369 27.418C26.5663 26.3396 25.6488 25.1193 24.9101 23.7913L25.4827 23.4096C26.0872 23.1136 26.5609 22.6046 26.8126 21.9803C27.0643 21.3561 27.0762 20.6609 26.8461 20.0284C26.6296 19.4454 26.452 18.8488 26.3144 18.2423C26.2462 17.9424 26.1917 17.6288 26.1508 17.3152C25.9852 16.3549 25.4822 15.4852 24.7323 14.8628C23.9824 14.2404 23.035 13.9062 22.0606 13.9204H17.9704C17.3828 13.9148 16.8009 14.036 16.2644 14.2756C15.7278 14.5151 15.2492 14.8675 14.8611 15.3087C14.4729 15.7499 14.1844 16.2695 14.0152 16.8322C13.8459 17.3949 13.7999 17.9874 13.8802 18.5695C14.6065 24.2813 17.2151 29.5883 21.2939 33.6523C25.3726 37.7163 30.6891 40.3055 36.4035 41.011H36.9216C37.927 41.0125 38.8977 40.6437 39.6484 39.9749C40.0797 39.5891 40.4243 39.1162 40.6593 38.5874C40.8943 38.0586 41.0145 37.4859 41.0118 36.9072V32.817C40.9951 31.87 40.6502 30.9581 40.0361 30.237C39.4219 29.5159 38.5765 29.0304 37.6442 28.8632ZM38.3259 37.0436C38.3257 37.2371 38.2842 37.4285 38.2043 37.6048C38.1243 37.7811 38.0078 37.9383 37.8623 38.0661C37.71 38.1976 37.5319 38.2959 37.3393 38.3546C37.1468 38.4133 36.9442 38.4311 36.7444 38.407C31.6383 37.7523 26.8955 35.4163 23.2641 31.7676C19.6326 28.1189 17.3192 23.3651 16.6888 18.256C16.6671 18.0562 16.6861 17.8542 16.7447 17.662C16.8033 17.4699 16.9002 17.2916 17.0296 17.138C17.1574 16.9925 17.3147 16.876 17.491 16.7961C17.6673 16.7161 17.8586 16.6747 18.0522 16.6744H22.1424C22.4594 16.6674 22.769 16.7711 23.0179 16.9676C23.2667 17.1642 23.4393 17.4414 23.5058 17.7515C23.5603 18.1242 23.6285 18.4923 23.7103 18.8559C23.8678 19.5746 24.0774 20.2808 24.3375 20.9691L22.4287 21.8553C22.2655 21.9302 22.1187 22.0366 21.9967 22.1684C21.8747 22.3001 21.78 22.4547 21.7179 22.6232C21.6558 22.7917 21.6277 22.9708 21.635 23.1502C21.6423 23.3296 21.685 23.5058 21.7606 23.6686C23.7228 27.8717 27.1014 31.2502 31.3044 33.2124C31.6363 33.3488 32.0087 33.3488 32.3406 33.2124C32.5106 33.1516 32.6669 33.0576 32.8003 32.9359C32.9337 32.8142 33.0416 32.6672 33.1177 32.5035L33.963 30.5947C34.6679 30.8468 35.3872 31.0562 36.1172 31.2219C36.4808 31.3037 36.8489 31.3718 37.2215 31.4264C37.5316 31.4929 37.8088 31.6654 38.0054 31.9143C38.202 32.1631 38.3057 32.4727 38.2986 32.7898L38.3259 37.0436Z" fill="#4D44B5"/>
</svg>
