<svg width="24" height="24" viewBox="0 0 24 24" fill="none" xmlns="http://www.w3.org/2000/svg">
<g id="email (1) 1">
<path id="Vector" d="M23.208 5.35425C23.1103 4.7009 22.7817 4.10419 22.2818 3.67229C21.7819 3.24038 21.1439 3.00188 20.4832 3H3.51674C2.85613 3.00188 2.21805 3.24038 1.71818 3.67229C1.2183 4.10419 0.889719 4.7009 0.791992 5.35425L12 12.6068L23.208 5.35425Z" fill="#610BEF"/>
<path id="Vector_2" d="M12.4072 14.1295C12.2859 14.208 12.1445 14.2497 12 14.2497C11.8555 14.2497 11.7141 14.208 11.5927 14.1295L0.75 7.11403V18.2328C0.750794 18.9663 1.04255 19.6696 1.56124 20.1883C2.07993 20.707 2.78321 20.9987 3.51675 20.9995H20.4832C21.2168 20.9987 21.9201 20.707 22.4388 20.1883C22.9575 19.6696 23.2492 18.9663 23.25 18.2328V7.11328L12.4072 14.1295Z" fill="#610BEF"/>
</g>
</svg>
