<svg width="55" height="55" viewBox="0 0 55 55" fill="none" xmlns="http://www.w3.org/2000/svg">
<rect opacity="0.1" width="55" height="55" rx="20" fill="#4D44B5"/>
<path d="M38.498 16.5H16.498C15.404 16.5 14.3548 16.9346 13.5812 17.7082C12.8076 18.4818 12.373 19.531 12.373 20.625V34.375C12.373 35.469 12.8076 36.5182 13.5812 37.2918C14.3548 38.0654 15.404 38.5 16.498 38.5H38.498C39.5921 38.5 40.6413 38.0654 41.4149 37.2918C42.1884 36.5182 42.623 35.469 42.623 34.375V20.625C42.623 19.531 42.1884 18.4818 41.4149 17.7082C40.6413 16.9346 39.5921 16.5 38.498 16.5ZM39.873 34.0312L33.1355 27.9812L39.873 23.265V34.0312ZM15.123 23.265L21.8605 27.9812L15.123 34.0312V23.265ZM24.1705 29.6037L26.7143 31.3775C26.9445 31.5372 27.2179 31.6227 27.498 31.6227C27.7782 31.6227 28.0516 31.5372 28.2818 31.3775L30.8255 29.6037L37.7005 35.75H17.323L24.1705 29.6037ZM16.498 19.25H38.498C38.7534 19.252 39.0032 19.3252 39.2193 19.4612C39.4354 19.5972 39.6094 19.7907 39.7218 20.02L27.498 28.5725L15.2743 20.02C15.3867 19.7907 15.5607 19.5972 15.7768 19.4612C15.9929 19.3252 16.2427 19.252 16.498 19.25Z" fill="#4D44B5"/>
</svg>
