<svg width="180" height="180" viewBox="0 0 180 180" fill="none" xmlns="http://www.w3.org/2000/svg">
<g id="img">
<rect id="Mask" width="180" height="180" fill="#F7F8F9"/>
<mask id="mask0_121_1212" style="mask-type:luminance" maskUnits="userSpaceOnUse" x="0" y="0" width="180" height="180">
<rect id="Mask_2" width="180" height="180" fill="white"/>
</mask>
<g mask="url(#mask0_121_1212)">
<g id="Icon_image" opacity="0.6">
<path id="Shape" fill-rule="evenodd" clip-rule="evenodd" d="M69.6875 71H110.312C112.901 71 115 73.0804 115 75.6467V103.527C115 106.094 112.901 108.174 110.312 108.174H69.6875C67.0986 108.174 65 106.094 65 103.527V75.6467C65 73.0804 67.0986 71 69.6875 71ZM70.2734 103.527H109.727C110.05 103.527 110.312 103.267 110.312 102.946V76.2276C110.312 75.9068 110.05 75.6467 109.727 75.6467H70.2734C69.9498 75.6467 69.6875 75.9068 69.6875 76.2276V102.946C69.6875 103.267 69.9498 103.527 70.2734 103.527ZM77.5 79.519C75.3427 79.519 73.5938 81.2527 73.5938 83.3913C73.5938 85.5299 75.3427 87.2636 77.5 87.2636C79.6573 87.2636 81.4062 85.5299 81.4062 83.3913C81.4062 81.2527 79.6573 79.519 77.5 79.519ZM105.625 98.8804H74.375V94.2337L78.2338 90.4084C78.6915 89.9547 79.4335 89.9547 79.8911 90.4084L83.75 94.2337L95.4213 82.6638C95.879 82.2102 96.621 82.2102 97.0786 82.6638L105.625 91.1359V98.8804Z" fill="#223C52"/>
</g>
</g>
</g>
</svg>
