<svg width="32" height="32" viewBox="0 0 32 32" fill="none" xmlns="http://www.w3.org/2000/svg">
<g clip-path="url(#clip0_15_1638)">
<path fill-rule="evenodd" clip-rule="evenodd" d="M0.0800781 16.0893C0.0800781 24.044 5.67254 30.6587 12.9867 32V20.444H9.11475V16H12.9867V12.444C12.9867 8.444 15.4816 6.22267 19.0103 6.22267C20.128 6.22267 21.3335 6.4 22.4512 6.57733V10.6667H20.4726C18.5792 10.6667 18.1494 11.644 18.1494 12.8893V16H22.2795L21.5916 20.444H18.1494V32C25.4636 30.6587 31.0561 24.0453 31.0561 16.0893C31.0561 7.24 24.0865 0 15.5681 0C7.04968 0 0.0800781 7.24 0.0800781 16.0893Z" fill="black"/>
</g>
<defs>
<clipPath id="clip0_15_1638">
<rect width="30.976" height="32" fill="white" transform="translate(0.0800781)"/>
</clipPath>
</defs>
</svg>
