<svg width="135" height="31" viewBox="0 0 135 31" fill="none" xmlns="http://www.w3.org/2000/svg">
<path d="M14.1664 2.71739C14.4777 1.82183 15.7442 1.82183 16.0555 2.71739L18.4352 9.56364C18.5726 9.95871 18.9413 10.2266 19.3594 10.2351L26.606 10.3828C27.5539 10.4021 27.9453 11.6066 27.1898 12.1794L21.414 16.5583C21.0807 16.811 20.9398 17.2444 21.061 17.6448L23.1598 24.5823C23.4344 25.4898 22.4097 26.2343 21.6315 25.6927L15.6821 21.5528C15.3388 21.3139 14.8831 21.3139 14.5397 21.5528L8.59035 25.6927C7.81211 26.2343 6.78746 25.4898 7.06202 24.5823L9.16088 17.6448C9.282 17.2444 9.14117 16.811 8.80787 16.5583L3.03208 12.1794C2.27655 11.6066 2.66793 10.4021 3.61586 10.3828L10.8624 10.2351C11.2806 10.2266 11.6493 9.95871 11.7866 9.56364L14.1664 2.71739Z" fill="#FCC43E"/>
<path d="M47.4261 2.76621C47.7374 1.87065 49.004 1.87066 49.3153 2.76622L51.695 9.61247C51.8323 10.0075 52.201 10.2754 52.6192 10.2839L59.8658 10.4316C60.8137 10.4509 61.2051 11.6555 60.4495 12.2283L54.6737 16.6072C54.3404 16.8598 54.1996 17.2933 54.3207 17.6936L56.4196 24.6311C56.6941 25.5386 55.6695 26.2831 54.8913 25.7415L48.9419 21.6016C48.5986 21.3627 48.1428 21.3627 47.7995 21.6016L41.8501 25.7415C41.0719 26.2831 40.0472 25.5386 40.3218 24.6311L42.4206 17.6936C42.5418 17.2933 42.4009 16.8598 42.0676 16.6072L36.2918 12.2283C35.5363 11.6555 35.9277 10.4509 36.8756 10.4316L44.1222 10.2839C44.5404 10.2754 44.909 10.0075 45.0464 9.61247L47.4261 2.76621Z" fill="#FCC43E"/>
<path d="M81.9808 2.76621C82.2921 1.87065 83.5586 1.87066 83.8699 2.76622L86.2497 9.61247C86.387 10.0075 86.7557 10.2754 87.1739 10.2839L94.4204 10.4316C95.3684 10.4509 95.7597 11.6555 95.0042 12.2283L89.2284 16.6072C88.8951 16.8598 88.7543 17.2933 88.8754 17.6936L90.9743 24.6311C91.2488 25.5386 90.2242 26.2831 89.4459 25.7415L83.4966 21.6016C83.1532 21.3627 82.6975 21.3627 82.3542 21.6016L76.4048 25.7415C75.6266 26.2831 74.6019 25.5386 74.8765 24.6311L76.9753 17.6936C77.0965 17.2933 76.9556 16.8598 76.6223 16.6072L70.8465 12.2283C70.091 11.6555 70.4824 10.4509 71.4303 10.4316L78.6769 10.2839C79.095 10.2754 79.4637 10.0075 79.6011 9.61247L81.9808 2.76621Z" fill="#FCC43E"/>
<path d="M118.946 2.76621C119.257 1.87065 120.523 1.87066 120.835 2.76622L123.215 9.61247C123.352 10.0075 123.721 10.2754 124.139 10.2839L131.385 10.4316C132.333 10.4509 132.725 11.6555 131.969 12.2283L126.193 16.6072C125.86 16.8598 125.719 17.2933 125.84 17.6936L127.939 24.6311C128.214 25.5386 127.189 26.2831 126.411 25.7415L120.461 21.6016C120.118 21.3627 119.662 21.3627 119.319 21.6016L113.37 25.7415C112.591 26.2831 111.567 25.5386 111.841 24.6311L113.94 17.6936C114.061 17.2933 113.92 16.8598 113.587 16.6072L107.811 12.2283C107.056 11.6555 107.447 10.4509 108.395 10.4316L115.642 10.2839C116.06 10.2754 116.429 10.0075 116.566 9.61247L118.946 2.76621Z" fill="#FCC43E"/>
</svg>
