<svg width="24" height="25" viewBox="0 0 24 25" fill="none" xmlns="http://www.w3.org/2000/svg">
<g id="heart">
<path id="Vector" d="M20.8401 5.43995C20.3294 4.92895 19.7229 4.5236 19.0555 4.24703C18.388 3.97047 17.6726 3.82812 16.9501 3.82812C16.2276 3.82812 15.5122 3.97047 14.8448 4.24703C14.1773 4.5236 13.5709 4.92895 13.0601 5.43995L12.0001 6.49995L10.9401 5.43995C9.90843 4.40826 8.50915 3.82866 7.05012 3.82866C5.59109 3.82866 4.19181 4.40826 3.16012 5.43995C2.12843 6.47164 1.54883 7.87092 1.54883 9.32995C1.54883 10.789 2.12843 12.1883 3.16012 13.22L4.22012 14.28L12.0001 22.0599L19.7801 14.28L20.8401 13.22C21.3511 12.7092 21.7565 12.1028 22.033 11.4353C22.3096 10.7678 22.4519 10.0524 22.4519 9.32995C22.4519 8.60746 22.3096 7.89205 22.033 7.2246C21.7565 6.55714 21.3511 5.95071 20.8401 5.43995Z" fill="#E61B00"/>
</g>
</svg>
