<svg width="43" height="25" viewBox="0 0 43 25" fill="none" xmlns="http://www.w3.org/2000/svg">
<g id="icon">
<path id="Vector" d="M38.2527 3.02246H14.0243C14.0243 3.02246 14.0243 4.75546 14.0243 5.02041H38.2527C39.0827 5.02041 39.7089 5.64976 39.7089 6.39899V18.8162L34.787 14.8203C34.4325 14.5261 33.9876 14.2894 33.4841 14.127C32.9806 13.9647 32.431 13.8808 31.8746 13.8813C31.3194 13.8796 30.7705 13.9619 30.2671 14.1225C29.7636 14.2831 29.3181 14.518 28.9623 14.8104L23.7928 19.076L18.5506 14.8403C18.1934 14.549 17.7476 14.3149 17.2445 14.1544C16.7413 13.9939 16.1931 13.9109 15.6382 13.9113C15.081 13.9133 14.5313 13.9994 14.0281 14.1634C13.5248 14.3274 13.0802 14.5653 12.7258 14.8603L7.5564 19.1859V9.64399H4.64407L4.64404 21.6733C4.64404 21.8132 4.64404 21.953 4.64404 22.1129C4.68441 22.3059 4.74772 22.4963 4.83335 22.6823C4.83335 22.7322 4.83335 22.7922 4.83335 22.8421L4.90616 22.962C5.00633 23.1418 5.1281 23.3155 5.2702 23.4814L5.44494 23.6713C5.57642 23.8052 5.72246 23.9321 5.8818 24.0509L6.10022 24.2007C6.33023 24.3499 6.58427 24.4806 6.85744 24.5903H6.90112C7.53467 24.8605 8.26658 25.0025 9.01258 24.9999H38.1362C38.7721 24.9954 39.3984 24.8925 39.9683 24.6988C40.5381 24.505 41.0368 24.2255 41.4272 23.881C41.8193 23.5479 42.1202 23.1689 42.3154 22.7622C42.4326 22.4888 42.5059 22.2074 42.5339 21.923C42.5339 21.8232 42.5339 21.7233 42.5339 21.6134V6.39899C42.5951 5.56564 42.1834 4.74841 41.3852 4.11884C40.5869 3.48927 39.4642 3.09632 38.2527 3.02246Z" fill="#8E8EA9"/>
<path id="Vector_2" d="M22.3513 11.5926C23.9598 11.5926 25.2637 10.6981 25.2637 9.59463C25.2637 8.49119 23.9598 7.59668 22.3513 7.59668C20.7429 7.59668 19.439 8.49119 19.439 9.59463C19.439 10.6981 20.7429 11.5926 22.3513 11.5926Z" fill="#8E8EA9"/>
<path id="Vector_3" d="M6.04254 8.07504H7.49819V5.03649H11.8667C11.8667 5.03649 11.8667 4.30246 11.8667 4.03752C11.8667 3.77258 11.8667 3.03855 11.8667 3.03855H7.49819V0C7.49819 0 6.42874 0 6.04254 0C5.65633 0 4.54307 0.00300487 4.58583 0V3.03855H0.217331C0.217331 3.03855 0.217285 3.77258 0.217285 4.03752C0.217285 4.30246 0.217405 5.03649 0.217405 5.03649H4.58583V8.07504C4.58583 8.07504 5.65633 8.07504 6.04254 8.07504Z" fill="#8E8EA9"/>
</g>
</svg>
