<svg width="31" height="32" viewBox="0 0 31 32" fill="none" xmlns="http://www.w3.org/2000/svg">
<g id="insta">
<g id="Group">
<path id="Vector" fill-rule="evenodd" clip-rule="evenodd" d="M9.6674 1.42003C11.1814 1.34803 11.6641 1.33203 15.5206 1.33203C19.3771 1.33203 19.8598 1.34936 21.3725 1.42003C22.8851 1.4907 23.9177 1.74003 24.8211 2.10136C25.7672 2.4707 26.6255 3.04803 27.3353 3.7947C28.0581 4.5267 28.6157 5.41203 28.9719 6.3907C29.323 7.32403 29.563 8.3907 29.6327 9.9507C29.7024 11.5174 29.7179 12.016 29.7179 15.9987C29.7179 19.9827 29.7011 20.4814 29.6327 22.0454C29.5643 23.6054 29.323 24.672 28.9719 25.6054C28.6157 26.5842 28.0572 27.471 27.3353 28.204C26.6255 28.9507 25.7672 29.5267 24.8211 29.8947C23.9177 30.2574 22.8851 30.5054 21.375 30.5774C19.8598 30.6494 19.3771 30.6654 15.5206 30.6654C11.6641 30.6654 11.1814 30.648 9.6674 30.5774C8.15732 30.5067 7.12479 30.2574 6.22132 29.8947C5.27387 29.5266 4.41545 28.9497 3.70581 28.204C2.98353 27.4716 2.42459 26.5852 2.06796 25.6067C1.71819 24.6734 1.47812 23.6067 1.40843 22.0467C1.33873 20.48 1.32324 19.9814 1.32324 15.9987C1.32324 12.0147 1.34002 11.516 1.40843 9.95336C1.47683 8.3907 1.71819 7.32403 2.06796 6.3907C2.42511 5.41214 2.98448 4.52578 3.7071 3.79336C4.41573 3.04737 5.27329 2.46996 6.22003 2.10136C7.1235 1.74003 8.15603 1.49203 9.66611 1.42003H9.6674ZM21.2576 4.06003C19.7604 3.98936 19.3113 3.9747 15.5206 3.9747C11.7299 3.9747 11.2807 3.98936 9.78356 4.06003C8.39868 4.12536 7.64751 4.36403 7.14673 4.56536C6.48462 4.83203 6.01094 5.14803 5.51404 5.66136C5.043 6.13477 4.6805 6.71107 4.45311 7.34803C4.25822 7.86536 4.02719 8.64136 3.96395 10.072C3.89554 11.6187 3.88134 12.0827 3.88134 15.9987C3.88134 19.9147 3.89554 20.3787 3.96395 21.9254C4.02719 23.356 4.25822 24.132 4.45311 24.6494C4.68027 25.2854 5.04294 25.8627 5.51404 26.336C5.97222 26.8227 6.53108 27.1974 7.14673 27.432C7.64751 27.6334 8.39868 27.872 9.78356 27.9374C11.2807 28.008 11.7286 28.0227 15.5206 28.0227C19.3126 28.0227 19.7604 28.008 21.2576 27.9374C22.6425 27.872 23.3936 27.6334 23.8944 27.432C24.5565 27.1654 25.0302 26.8494 25.5271 26.336C25.9982 25.8627 26.3609 25.2854 26.588 24.6494C26.7829 24.132 27.014 23.356 27.0772 21.9254C27.1456 20.3787 27.1598 19.9147 27.1598 15.9987C27.1598 12.0827 27.1456 11.6187 27.0772 10.072C27.014 8.64136 26.7829 7.86536 26.588 7.34803C26.3299 6.66403 26.024 6.1747 25.5271 5.66136C25.0688 5.17479 24.511 4.80031 23.8944 4.56536C23.3936 4.36403 22.6425 4.12536 21.2576 4.06003ZM13.7072 20.52C14.7199 20.9555 15.8476 21.0143 16.8976 20.6863C17.9476 20.3583 18.8549 19.6639 19.4643 18.7217C20.0738 17.7795 20.3477 16.6479 20.2393 15.5202C20.1309 14.3925 19.6468 13.3387 18.8699 12.5387C18.3745 12.0273 17.7756 11.6358 17.1163 11.3922C16.4569 11.1487 15.7534 11.0592 15.0566 11.1302C14.3597 11.2012 13.6867 11.4309 13.0861 11.8029C12.4855 12.1748 11.9722 12.6797 11.5831 13.2812C11.1941 13.8826 10.939 14.5657 10.8361 15.2813C10.7333 15.9969 10.7853 16.7271 10.9885 17.4194C11.1916 18.1117 11.5408 18.7488 12.0109 19.285C12.481 19.8211 13.0603 20.2429 13.7072 20.52ZM10.3605 10.668C11.0381 9.968 11.8426 9.4127 12.728 9.03385C13.6133 8.65499 14.5623 8.46 15.5206 8.46C16.4789 8.46 17.4278 8.65499 18.3132 9.03385C19.1986 9.4127 20.003 9.968 20.6807 10.668C21.3583 11.3681 21.8958 12.1991 22.2626 13.1138C22.6293 14.0284 22.818 15.0087 22.818 15.9987C22.818 16.9887 22.6293 17.969 22.2626 18.8836C21.8958 19.7983 21.3583 20.6293 20.6807 21.3294C19.3121 22.7431 17.456 23.5374 15.5206 23.5374C13.5852 23.5374 11.729 22.7431 10.3605 21.3294C8.99195 19.9156 8.22311 17.9981 8.22311 15.9987C8.22311 13.9993 8.99195 12.0818 10.3605 10.668ZM24.4365 9.5827C24.6044 9.41906 24.7389 9.22227 24.8318 9.004C24.9248 8.78572 24.9745 8.55039 24.9778 8.31194C24.9812 8.07349 24.9382 7.83676 24.8514 7.61578C24.7646 7.39479 24.6358 7.19405 24.4726 7.02542C24.3094 6.85679 24.115 6.72371 23.9011 6.63405C23.6872 6.5444 23.4581 6.5 23.2272 6.50347C22.9964 6.50695 22.7686 6.55824 22.5573 6.65429C22.346 6.75035 22.1555 6.88922 21.9971 7.0627C21.6891 7.40007 21.5204 7.84819 21.527 8.31194C21.5335 8.77568 21.7147 9.21854 22.0322 9.54649C22.3496 9.87444 22.7783 10.0617 23.2272 10.0684C23.6761 10.0752 24.1099 9.90095 24.4365 9.5827Z" fill="black"/>
</g>
</g>
</svg>
