<svg width="17" height="22" viewBox="0 0 17 22" fill="none" xmlns="http://www.w3.org/2000/svg">
<g id="map-pin">
<path id="Vector" d="M14.5 9.66797C14.5 14.3346 8.5 18.3346 8.5 18.3346C8.5 18.3346 2.5 14.3346 2.5 9.66797C2.5 8.07667 3.13214 6.55055 4.25736 5.42533C5.38258 4.30011 6.9087 3.66797 8.5 3.66797C10.0913 3.66797 11.6174 4.30011 12.7426 5.42533C13.8679 6.55055 14.5 8.07667 14.5 9.66797Z" stroke="#610BEF" stroke-width="2" stroke-linecap="round" stroke-linejoin="round"/>
<path id="Vector_2" d="M8.5 11.668C9.60457 11.668 10.5 10.7725 10.5 9.66797C10.5 8.5634 9.60457 7.66797 8.5 7.66797C7.39543 7.66797 6.5 8.5634 6.5 9.66797C6.5 10.7725 7.39543 11.668 8.5 11.668Z" stroke="#610BEF" stroke-width="2" stroke-linecap="round" stroke-linejoin="round"/>
</g>
</svg>
