<svg width="56" height="56" viewBox="0 0 56 56" fill="none" xmlns="http://www.w3.org/2000/svg">
<g id="Quote Left">
<path id="&#226;&#128;&#156;" d="M24.086 34.4236C24.086 31.6136 23.2162 29.205 21.4767 27.1978C19.7372 25.0568 17.5293 23.6518 14.853 22.9827C15.1207 21.2432 15.7897 19.4367 16.8602 17.5634C18.0645 15.5562 19.3357 13.9505 20.6738 12.7462L16.6595 9.33398C5.55317 16.6936 0 25.0568 0 34.4236C0 37.9027 1.1374 40.8465 3.41219 43.2551C5.82079 45.5299 8.69773 46.6673 12.043 46.6673C15.3883 46.6673 18.1983 45.463 20.4731 43.0544C22.8817 40.6458 24.086 37.7689 24.086 34.4236ZM56 34.4236C56 31.6136 55.1302 29.205 53.3907 27.1978C51.6511 25.0568 49.4432 23.6518 46.767 22.9827C47.1685 21.1094 47.9044 19.236 48.9749 17.3627C50.1792 15.4893 51.4504 13.9505 52.7885 12.7462L48.5735 9.33398C37.3333 16.9612 31.7133 25.3244 31.7133 34.4236C31.7133 37.7689 32.9176 40.6458 35.3262 43.0544C37.7348 45.463 40.6117 46.6673 43.957 46.6673C47.1685 46.6673 49.9785 45.463 52.3871 43.0544C54.7957 40.6458 56 37.7689 56 34.4236Z" fill="#610BEF"/>
</g>
</svg>
