<svg width="19" height="18" viewBox="0 0 19 18" fill="none" xmlns="http://www.w3.org/2000/svg">
<path id="Star 1" d="M8.07341 2.21786L8.54894 2.37236L8.07341 2.21786L6.89159 5.85514C6.82465 6.06115 6.63267 6.20063 6.41606 6.20063H2.59159C1.1385 6.20063 0.534344 8.06006 1.70991 8.91416L4.80397 11.1621C4.97922 11.2894 5.05255 11.5151 4.98561 11.7211L3.80378 15.3584C3.35475 16.7404 4.93648 17.8896 6.11205 17.0355L9.20611 14.7875C9.38135 14.6602 9.61865 14.6602 9.79389 14.7875L12.888 17.0355C14.0635 17.8896 15.6452 16.7404 15.1962 15.3584L14.0144 11.7211C13.9475 11.5151 14.0208 11.2894 14.196 11.1621L17.2901 8.91416C18.4657 8.06006 17.8615 6.20063 16.4084 6.20063H12.5839C12.3673 6.20063 12.1753 6.06115 12.1084 5.85514L10.9266 2.21785C10.4776 0.835885 8.52244 0.835894 8.07341 2.21786Z" stroke="#EAAC30"/>
</svg>
