<svg width="24" height="24" viewBox="0 0 24 24" fill="none" xmlns="http://www.w3.org/2000/svg">
<g id="telephone 1" clip-path="url(#clip0_48_7313)">
<g id="Group">
<g id="Group_2">
<path id="Vector" d="M22.5814 18.7063L22.4574 18.4384C22.0856 17.5599 17.5061 16.2137 17.1266 16.1921L16.8229 16.2154C16.1985 16.3441 15.5107 16.9358 14.0668 18.2155C12.4403 17.4627 10.2123 15.4564 9.16208 14.2713C8.0248 12.9901 6.606 10.8353 6.09611 9.22554C7.74299 7.76602 8.4291 7.13248 8.47277 6.42777C8.49606 6.04826 7.71055 1.34306 6.88312 0.865892L6.63524 0.709468C6.1085 0.370138 5.31234 -0.142754 4.42764 0.0372475C4.21399 0.0821268 4.00474 0.165882 3.80944 0.286625C3.21604 0.661684 1.76296 1.67004 1.09989 2.98848C0.690892 3.80943 0.504984 11.3015 6.1209 17.6348C10.8561 22.9778 16.5307 23.9581 18.7311 24H19.0211C19.2514 23.9951 19.4286 23.979 19.5375 23.9566L19.567 23.9519L19.6584 23.9239C21.0465 23.4267 22.2224 22.1035 22.6639 21.5582C23.4799 20.5483 22.8974 19.3491 22.5814 18.7063Z" fill="#610BEF"/>
</g>
</g>
</g>
<defs>
<clipPath id="clip0_48_7313">
<rect width="24" height="24" fill="white"/>
</clipPath>
</defs>
</svg>
