<svg width="32" height="32" viewBox="0 0 32 32" fill="none" xmlns="http://www.w3.org/2000/svg">
<g id="twitter">
<path id="Vector" d="M16.4719 2C8.98807 2 2.91992 8.26875 2.91992 16C2.91992 23.7313 8.98807 30 16.4719 30C23.9558 30 30.0239 23.7313 30.0239 16C30.0239 8.26875 23.9558 2 16.4719 2ZM22.9847 12.5531C22.9938 12.7 22.9938 12.8531 22.9938 13.0031C22.9938 17.5906 19.6119 22.875 13.4318 22.875C11.526 22.875 9.75945 22.3031 8.27115 21.3188C8.5434 21.35 8.80355 21.3625 9.08185 21.3625C10.6548 21.3625 12.1008 20.8125 13.2533 19.8813C11.7771 19.85 10.5369 18.85 10.1134 17.475C10.6306 17.5531 11.0965 17.5531 11.6289 17.4125C10.8688 17.253 10.1856 16.8265 9.69537 16.2056C9.20514 15.5846 8.93812 14.8075 8.93967 14.0063V13.9625C9.38435 14.2219 9.90767 14.3812 10.4552 14.4031C9.99492 14.0862 9.61745 13.6569 9.35625 13.1532C9.09505 12.6495 8.95819 12.087 8.95782 11.5156C8.95782 10.8687 9.12117 10.2781 9.4146 9.76562C10.2583 10.8386 11.3111 11.7161 12.5045 12.3411C13.698 12.9662 15.0054 13.3249 16.3418 13.3938C15.8669 11.0344 17.573 9.125 19.624 9.125C20.592 9.125 21.4632 9.54375 22.0772 10.2188C22.8365 10.0719 23.5625 9.77812 24.2099 9.38437C23.9588 10.1875 23.4324 10.8656 22.7337 11.2937C23.4113 11.2188 24.0647 11.025 24.6697 10.7531C24.2129 11.4469 23.6412 12.0625 22.9847 12.5531Z" fill="black"/>
</g>
</svg>
